<svg xmlns="http://www.w3.org/2000/svg" width="440" height="280" viewBox="0 0 440 280" role="img" aria-label="Languages by code bytes in public original repositories"><style>text{font-family:ui-monospace,Consolas,monospace} .sans{font-family:Arial,sans-serif}</style><rect x="0" y="0" width="440" height="280" rx="10" fill="#0b100d" stroke="#1b3023"/><text x="22" y="30" fill="#22c55e" font-size="12" >LANGUAGE DISTRIBUTION</text><circle cx="108" cy="133" r="65" fill="none" stroke="#22c55e" stroke-width="20" stroke-dasharray="126.82331270966195 281.58373225701115" stroke-dashoffset="0" transform="rotate(-90 108 133)"/><rect x="208" y="66" width="8" height="8" rx="2" fill="#22c55e" stroke="none"/><text x="226" y="74" fill="#c9d1d9" font-size="11" >JavaScript</text><text x="417" y="74" fill="#7c9986" font-size="10" text-anchor="end">31.1%</text><circle cx="108" cy="133" r="65" fill="none" stroke="#86efac" stroke-width="20" stroke-dasharray="42.763469096403334 365.64357587026973" stroke-dashoffset="-126.82331270966195" transform="rotate(-90 108 133)"/><rect x="208" y="92" width="8" height="8" rx="2" fill="#86efac" stroke="none"/><text x="226" y="100" fill="#c9d1d9" font-size="11" >TypeScript</text><text x="417" y="100" fill="#7c9986" font-size="10" text-anchor="end">10.5%</text><circle cx="108" cy="133" r="65" fill="none" stroke="#14b8a6" stroke-width="20" stroke-dasharray="41.61477875226595 366.79226621440716" stroke-dashoffset="-169.58678180606526" transform="rotate(-90 108 133)"/><rect x="208" y="118" width="8" height="8" rx="2" fill="#14b8a6" stroke="none"/><text x="226" y="126" fill="#c9d1d9" font-size="11" >CSS</text><text x="417" y="126" fill="#7c9986" font-size="10" text-anchor="end">10.2%</text><circle cx="108" cy="133" r="65" fill="none" stroke="#a3e635" stroke-width="20" stroke-dasharray="41.18812526201451 367.2189197046586" stroke-dashoffset="-211.2015605583312" transform="rotate(-90 108 133)"/><rect x="208" y="144" width="8" height="8" rx="2" fill="#a3e635" stroke="none"/><text x="226" y="152" fill="#c9d1d9" font-size="11" >HTML</text><text x="417" y="152" fill="#7c9986" font-size="10" text-anchor="end">10.1%</text><circle cx="108" cy="133" r="65" fill="none" stroke="#3b8261" stroke-width="20" stroke-dasharray="33.79412819246993 374.61291677420314" stroke-dashoffset="-252.38968582034573" transform="rotate(-90 108 133)"/><rect x="208" y="170" width="8" height="8" rx="2" fill="#3b8261" stroke="none"/><text x="226" y="178" fill="#c9d1d9" font-size="11" >C</text><text x="417" y="178" fill="#7c9986" font-size="10" text-anchor="end">8.3%</text><circle cx="108" cy="133" r="65" fill="none" stroke="#506658" stroke-width="20" stroke-dasharray="122.22323095385745 286.1838140128156" stroke-dashoffset="-286.1838140128157" transform="rotate(-90 108 133)"/><rect x="208" y="196" width="8" height="8" rx="2" fill="#506658" stroke="none"/><text x="226" y="204" fill="#c9d1d9" font-size="11" >Other</text><text x="417" y="204" fill="#7c9986" font-size="10" text-anchor="end">29.9%</text><text x="108" y="132" fill="#effff4" font-size="24" text-anchor="middle">12</text><text x="108" y="152" fill="#7c9986" font-size="9" text-anchor="middle">languages</text><text x="22" y="241" fill="#7c9986" font-size="9" >By code bytes · public non-fork repositories</text><text x="22" y="260" fill="#7c9986" font-size="9" >Language usage is not a proficiency score.</text></svg>