<svg xmlns="http://www.w3.org/2000/svg" width="900" height="280" viewBox="0 0 900 280"><style>text{font-family:Consolas,monospace}</style><rect x=".5" y=".5" width="899" height="279" rx="10" fill="#0b100d" stroke="#1b3023"/><text x="22" y="43" fill="#7c9986" font-size="10">FRONTEND</text><rect x="133" y="24" width="60" height="30" rx="5" fill="#102519" stroke="#20462d"/><text x="163" y="43" text-anchor="middle" fill="#86efac" font-size="11">React</text><rect x="202" y="24" width="74" height="30" rx="5" fill="#102519" stroke="#20462d"/><text x="239" y="43" text-anchor="middle" fill="#86efac" font-size="11">Next.js</text><rect x="285" y="24" width="95" height="30" rx="5" fill="#102519" stroke="#20462d"/><text x="332.5" y="43" text-anchor="middle" fill="#86efac" font-size="11">TypeScript</text><rect x="389" y="24" width="95" height="30" rx="5" fill="#102519" stroke="#20462d"/><text x="436.5" y="43" text-anchor="middle" fill="#86efac" font-size="11">JavaScript</text><rect x="493" y="24" width="95" height="30" rx="5" fill="#102519" stroke="#20462d"/><text x="540.5" y="43" text-anchor="middle" fill="#86efac" font-size="11">HTML / CSS</text><rect x="597" y="24" width="109" height="30" rx="5" fill="#102519" stroke="#20462d"/><text x="651.5" y="43" text-anchor="middle" fill="#86efac" font-size="11">React Native</text><text x="22" y="94" fill="#7c9986" font-size="10">BACKEND</text><rect x="133" y="75" width="74" height="30" rx="5" fill="#102519" stroke="#20462d"/><text x="170" y="94" text-anchor="middle" fill="#86efac" font-size="11">Node.js</text><rect x="216" y="75" width="74" height="30" rx="5" fill="#102519" stroke="#20462d"/><text x="253" y="94" text-anchor="middle" fill="#86efac" font-size="11">Express</text><rect x="299" y="75" width="74" height="30" rx="5" fill="#102519" stroke="#20462d"/><text x="336" y="94" text-anchor="middle" fill="#86efac" font-size="11">FastAPI</text><rect x="382" y="75" width="46" height="30" rx="5" fill="#102519" stroke="#20462d"/><text x="405" y="94" text-anchor="middle" fill="#86efac" font-size="11">PHP</text><rect x="437" y="75" width="88" height="30" rx="5" fill="#102519" stroke="#20462d"/><text x="481" y="94" text-anchor="middle" fill="#86efac" font-size="11">C# / .NET</text><text x="22" y="145" fill="#7c9986" font-size="10">DATABASES</text><rect x="133" y="126" width="74" height="30" rx="5" fill="#102519" stroke="#20462d"/><text x="170" y="145" text-anchor="middle" fill="#86efac" font-size="11">MongoDB</text><rect x="216" y="126" width="60" height="30" rx="5" fill="#102519" stroke="#20462d"/><text x="246" y="145" text-anchor="middle" fill="#86efac" font-size="11">MySQL</text><rect x="285" y="126" width="95" height="30" rx="5" fill="#102519" stroke="#20462d"/><text x="332.5" y="145" text-anchor="middle" fill="#86efac" font-size="11">PostgreSQL</text><rect x="389" y="126" width="81" height="30" rx="5" fill="#102519" stroke="#20462d"/><text x="429.5" y="145" text-anchor="middle" fill="#86efac" font-size="11">Supabase</text><rect x="479" y="126" width="81" height="30" rx="5" fill="#102519" stroke="#20462d"/><text x="519.5" y="145" text-anchor="middle" fill="#86efac" font-size="11">Firebase</text><text x="22" y="196" fill="#7c9986" font-size="10">LANGUAGES</text><rect x="133" y="177" width="67" height="30" rx="5" fill="#102519" stroke="#20462d"/><text x="166.5" y="196" text-anchor="middle" fill="#86efac" font-size="11">Python</text><rect x="209" y="177" width="53" height="30" rx="5" fill="#102519" stroke="#20462d"/><text x="235.5" y="196" text-anchor="middle" fill="#86efac" font-size="11">Java</text><rect x="271" y="177" width="46" height="30" rx="5" fill="#102519" stroke="#20462d"/><text x="294" y="196" text-anchor="middle" fill="#86efac" font-size="11">C++</text><rect x="326" y="177" width="32" height="30" rx="5" fill="#102519" stroke="#20462d"/><text x="342" y="196" text-anchor="middle" fill="#86efac" font-size="11">R</text><text x="22" y="247" fill="#7c9986" font-size="10">WORKFLOW</text><rect x="133" y="228" width="46" height="30" rx="5" fill="#102519" stroke="#20462d"/><text x="156" y="247" text-anchor="middle" fill="#86efac" font-size="11">Git</text><rect x="188" y="228" width="67" height="30" rx="5" fill="#102519" stroke="#20462d"/><text x="221.5" y="247" text-anchor="middle" fill="#86efac" font-size="11">Docker</text><rect x="264" y="228" width="74" height="30" rx="5" fill="#102519" stroke="#20462d"/><text x="301" y="247" text-anchor="middle" fill="#86efac" font-size="11">Postman</text><rect x="347" y="228" width="60" height="30" rx="5" fill="#102519" stroke="#20462d"/><text x="377" y="247" text-anchor="middle" fill="#86efac" font-size="11">Figma</text><rect x="416" y="228" width="74" height="30" rx="5" fill="#102519" stroke="#20462d"/><text x="453" y="247" text-anchor="middle" fill="#86efac" font-size="11">VS Code</text><rect x="499" y="228" width="123" height="30" rx="5" fill="#102519" stroke="#20462d"/><text x="560.5" y="247" text-anchor="middle" fill="#86efac" font-size="11">Android Studio</text></svg>